// 占位 SVG 图标（实际运行时可替换为真实图标文件）
// 活动 tab 图标
<svg xmlns="http://www.w3.org/2000/svg" width="48" height="48" viewBox="0 0 24 24" fill="none" stroke="currentColor" stroke-width="2" stroke-linecap="round" stroke-linejoin="round"><path d="M12 2l3 9h7l-5 5 2 9-9-4-9 4 2-9-5-5h7z"></path></svg>
// 活动 tab 选中图标
<svg xmlns="http://www.w3.org/2000/svg" width="48" height="48" viewBox="0 0 24 24" fill="none" stroke="%232563eb" stroke-width="2" stroke-linecap="round" stroke-linejoin="round"><path d="M12 2l3 9h7l-5 5 2 9-9-4-9 4 2-9-5-5h7z"></path></svg>
// 我的 tab 图标
<svg xmlns="http://www.w3.org/2000/svg" width="48" height="48" viewBox="0 0 24 24" fill="none" stroke="currentColor" stroke-width="2" stroke-linecap="round" stroke-linejoin="round"><path d="M12 2a3 3 0 0 0-3 3v7a3 3 0 0 0 6 0V5a3 3 0 0 0-3-3zM3 10h18a2 2 0 0 1 2 2v9a2 2 0 0 1-2 2H5a2 2 0 0 1-2-2v-9a2 2 0 0 1 2-2zm0 0v7a4 4 0 0 0 8 0v-3a4 4 0 0 1-8 0z"></path></svg>
// 我的 tab 选中图标
<svg xmlns="http://www.w3.org/2000/svg" width="48" height="48" viewBox="0 0 24 24" fill="none" stroke="%232563eb" stroke-width="2" stroke-linecap="round" stroke-linejoin="round"><path d="M12 2a3 3 0 0 0-3 3v7a3 3 0 0 0 6 0V5a3 3 0 0 0-3-3zM3 10h18a2 2 0 0 1 2 2v9a2 2 0 0 1-2 2H5a2 2 0 0 1-2-2v-9a2 2 0 0 1 2-2zm0 0v7a4 4 0 0 0 8 0v-3a4 4 0 0 1-8 0z"></path></svg>
// 钱包 tab 图标
<svg xmlns="http://www.w3.org/2000/svg" width="48" height="48" viewBox="0 0 24 24" fill="none" stroke="currentColor" stroke-width="2" stroke-linecap="round" stroke-linejoin="round"><path d="M17 10H7a2 2 0 0 0-2 2v9a2 2 0 0 0 2 2h10a2 2 0 0 0 2-2v-9a2 2 0 0 0-2-2zM9 11a2 2 0 1 0 0 4 2 2 0 0 0 0-4zm4 0a2 2 0 1 0 0 4 2 2 0 0 0 0-4zm4 0a2 2 0 1 0 0 4 2 2 0 0 0 0-4z"></path></svg>
// 钱包 tab 选中图标
<svg xmlns="http://www.w3.org/2000/svg" width="48" height="48" viewBox="0 0 24 24" fill="none" stroke="%232563eb" stroke-width="2" stroke-linecap="round" stroke-linejoin="round"><path d="M17 10H7a2 2 0 0 0-2 2v9a2 2 0 0 0 2 2h10a2 2 0 0 0 2-2v-9a2 2 0 0 0-2-2zM9 11a2 2 0 1 0 0 4 2 2 0 0 0 0-4zm4 0a2 2 0 1 0 0 4 2 2 0 0 0 0-4zm4 0a2 2 0 1 0 0 4 2 2 0 0 0 0-4z"></path></svg>